<svg width="18" height="18" viewBox="0 0 18 18" fill="none" xmlns="http://www.w3.org/2000/svg">
<path d="M2.4335 4.55279C2.90405 4.22428 3.61338 4.28728 4.03588 4.6358L3.55131 3.93226C3.16136 3.37673 3.30102 2.7757 3.85767 2.38568C4.41432 1.99716 5.99166 3.04172 5.99166 3.04172C5.5982 2.48069 5.67179 1.76965 6.23345 1.37613C6.7951 0.984111 7.57001 1.11962 7.96347 1.68165L13.1796 9.04203L12.5148 15.4799L6.9668 13.4588L2.12765 6.29188C1.73068 5.72736 1.86784 4.94882 2.4335 4.55279Z" fill="#EF9645"/>
<path d="M1.34886 8.64743C1.34886 8.64743 0.782203 7.82239 1.60867 7.25686C2.43413 6.69133 3.00029 7.51587 3.00029 7.51587L5.62886 11.3451C5.71946 11.1941 5.81858 11.0451 5.92921 10.898L2.28095 5.58427C2.28095 5.58427 1.71479 4.75972 2.54075 4.19419C3.36622 3.62866 3.93238 4.45321 3.93238 4.45321L7.36388 9.45197C7.49153 9.34797 7.62218 9.24346 7.75684 9.14095L3.7787 3.34515C3.7787 3.34515 3.21254 2.52061 4.0385 1.95508C4.86396 1.38955 5.43012 2.21409 5.43012 2.21409L9.40826 8.00889C9.55443 7.91939 9.6991 7.84189 9.84427 7.75988L6.12594 2.3436C6.12594 2.3436 5.55978 1.51905 6.38524 0.953524C7.2107 0.387994 7.77686 1.21254 7.77686 1.21254L11.7084 6.93984L12.3061 7.81088C9.82926 9.50797 9.59348 12.7006 11.0086 14.7622C11.2915 15.1748 11.7044 14.8923 11.7044 14.8923C10.006 12.4176 10.5246 9.63698 13.002 7.94039L12.2716 4.2892C12.2716 4.2892 11.9988 3.32715 12.9614 3.05413C13.9245 2.78162 14.1979 3.74367 14.1979 3.74367L15.0413 6.2458C15.3757 7.23785 15.7316 8.22641 16.2027 9.16146C17.5327 11.8016 16.7383 15.0828 14.2304 16.8014C11.4947 18.675 7.75484 17.9784 5.87865 15.2463L1.34886 8.64743Z" fill="#FFDC5D"/>
<path d="M6.00723 16.0009C4.00488 16.0009 1.98152 13.9798 1.98152 11.9797C1.98152 11.7032 1.77878 11.4797 1.50196 11.4797C1.22513 11.4797 0.980347 11.7032 0.980347 11.9797C0.980347 14.9798 3.00371 17.0009 6.00723 17.0009C6.28405 17.0009 6.50781 16.7564 6.50781 16.4799C6.50781 16.2034 6.28405 16.0009 6.00723 16.0009Z" fill="#5DADEC"/>
<path d="M3.50409 16.9798C2.00234 16.9798 1.00117 15.9798 1.00117 14.4797C1.00117 14.2032 0.777407 13.9797 0.500584 13.9797C0.223761 13.9797 0 14.2032 0 14.4797C0 16.4798 1.50175 17.9799 3.50409 17.9799C3.78091 17.9799 4.00467 17.7563 4.00467 17.4798C4.00467 17.2033 3.78091 16.9798 3.50409 16.9798ZM12.014 0.978973C11.7377 0.978973 11.5134 1.20299 11.5134 1.479C11.5134 1.75501 11.7377 1.97903 12.014 1.97903C14.0164 1.97903 16.0187 3.77362 16.0187 5.97923C16.0187 6.25525 16.243 6.47926 16.5193 6.47926C16.7956 6.47926 17.0199 6.25525 17.0199 5.97923C17.0199 3.22209 15.0175 0.978973 12.014 0.978973Z" fill="#5DADEC"/>
<path d="M14.5169 0C14.2406 0 14.0164 0.20301 14.0164 0.479023C14.0164 0.755035 14.2406 1.00005 14.5169 1.00005C16.0187 1.00005 16.9988 2.1126 16.9988 3.47916C16.9988 3.75518 17.2436 3.97919 17.5204 3.97919C17.7973 3.97919 18 3.75518 18 3.47916C18 1.56057 16.5193 0 14.5169 0Z" fill="#5DADEC"/>
</svg>
