<svg width="36" height="36" viewBox="0 0 36 36" fill="none" xmlns="http://www.w3.org/2000/svg">
<path d="M18 3.00002C9.72897 3.00002 2.99997 9.72902 2.99997 18V24.2145C2.99997 25.7505 4.34547 27 5.99997 27H7.49997C7.89779 27 8.27932 26.842 8.56063 26.5607C8.84193 26.2794 8.99997 25.8978 8.99997 25.5V17.7855C8.99997 17.3877 8.84193 17.0062 8.56063 16.7249C8.27932 16.4436 7.89779 16.2855 7.49997 16.2855H6.13797C6.97197 10.4805 11.967 6.00002 18 6.00002C24.033 6.00002 29.028 10.4805 29.862 16.2855H28.5C28.1021 16.2855 27.7206 16.4436 27.4393 16.7249C27.158 17.0062 27 17.3877 27 17.7855V27C27 28.6545 25.6545 30 24 30H21V28.5H15V33H24C27.309 33 30 30.309 30 27C31.6545 27 33 25.7505 33 24.2145V18C33 9.72902 26.271 3.00002 18 3.00002Z" fill="url(#paint0_linear_1_183)"/>
<defs>
<linearGradient id="paint0_linear_1_183" x1="46.5714" y1="51.3333" x2="-10.1558" y2="45.307" gradientUnits="userSpaceOnUse">
<stop stop-color="#01C16C"/>
<stop offset="1" stop-color="#019C57"/>
</linearGradient>
</defs>
</svg>
