<svg width="36" height="36" viewBox="0 0 36 36" fill="none" xmlns="http://www.w3.org/2000/svg">
<path d="M30 10.125C32.2782 10.125 34.125 8.27817 34.125 6C34.125 3.72183 32.2782 1.875 30 1.875C27.7218 1.875 25.875 3.72183 25.875 6C25.875 8.27817 27.7218 10.125 30 10.125Z" fill="url(#paint0_linear_1_192)"/>
<path d="M28.56 12.225C26.205 11.715 24.285 9.795 23.775 7.44C23.58 6.525 23.565 5.64 23.73 4.8C23.925 3.87 23.235 3 22.275 3H10.5C6.36 3 3 6.36 3 10.5V20.925C3 25.065 6.36 28.425 10.5 28.425H12.75C13.17 28.425 13.71 28.695 13.95 29.025L16.2 32.01C17.19 33.33 18.81 33.33 19.8 32.01L22.05 29.025C22.335 28.65 22.77 28.425 23.25 28.425H25.515C29.655 28.425 33 25.08 33 20.94V13.725C33 12.78 32.13 12.09 31.2 12.27C30.36 12.42 29.475 12.42 28.56 12.225ZM12 18C11.16 18 10.5 17.325 10.5 16.5C10.5 15.675 11.16 15 12 15C12.825 15 13.5 15.675 13.5 16.5C13.5 17.325 12.84 18 12 18ZM18 18C17.16 18 16.5 17.325 16.5 16.5C16.5 15.675 17.16 15 18 15C18.825 15 19.5 15.675 19.5 16.5C19.5 17.325 18.84 18 18 18ZM24 18C23.16 18 22.5 17.325 22.5 16.5C22.5 15.675 23.16 15 24 15C24.825 15 25.5 15.675 25.5 16.5C25.5 17.325 24.84 18 24 18Z" fill="url(#paint1_linear_1_192)"/>
<defs>
<linearGradient id="paint0_linear_1_192" x1="37.8571" y1="15.1667" x2="22.2572" y2="13.5094" gradientUnits="userSpaceOnUse">
<stop stop-color="#01C16C"/>
<stop offset="1" stop-color="#019C57"/>
</linearGradient>
<linearGradient id="paint1_linear_1_192" x1="46.5714" y1="51.3333" x2="-10.1558" y2="45.307" gradientUnits="userSpaceOnUse">
<stop stop-color="#01C16C"/>
<stop offset="1" stop-color="#019C57"/>
</linearGradient>
</defs>
</svg>
