<svg width="36" height="37" viewBox="0 0 36 37" fill="none" xmlns="http://www.w3.org/2000/svg">
<path d="M25.5 4.68884H10.5C6 4.68884 3 6.93634 3 12.1805V24.1072C3 27.5384 5.775 30.3103 9.21 30.3103H18.6C19.47 30.3103 20.22 29.5761 20.13 28.7071C19.92 26.4146 20.67 23.9424 22.71 21.9496C23.55 21.1255 24.585 20.4962 25.71 20.1366C27.585 19.5373 29.4 19.6122 31.005 20.1666C31.98 20.4962 33 19.792 33 18.7582V12.1805C33 6.93634 30 4.68884 25.5 4.68884ZM26.205 13.0645L21.51 16.8103C20.52 17.6045 19.26 17.994 18 17.994C16.74 17.994 15.465 17.6045 14.49 16.8103L9.795 13.0645C9.315 12.6749 9.24 11.9707 9.615 11.4763C10.005 10.9968 10.71 10.9069 11.19 11.2965L15.885 15.0423C17.025 15.9563 18.96 15.9563 20.1 15.0423L24.795 11.2965C25.275 10.9069 25.995 10.9818 26.37 11.4763C26.76 11.9707 26.685 12.6749 26.205 13.0645Z" fill="url(#paint0_linear_1_199)"/>
<path d="M33.975 32.333L32.85 31.2092C33.435 30.3252 33.78 29.2614 33.78 28.1226C33.78 25.0061 31.26 22.4889 28.14 22.4889C25.02 22.4889 22.5 25.0061 22.5 28.1076C22.5 31.2092 25.02 33.7414 28.14 33.7414C29.28 33.7414 30.345 33.3968 31.23 32.8124L32.355 33.9362C32.58 34.1609 32.865 34.2658 33.165 34.2658C33.465 34.2658 33.75 34.1609 33.975 33.9362C34.425 33.5017 34.425 32.7825 33.975 32.333Z" fill="url(#paint1_linear_1_199)"/>
<defs>
<linearGradient id="paint0_linear_1_199" x1="46.5714" y1="45.9679" x2="-9.92186" y2="38.9408" gradientUnits="userSpaceOnUse">
<stop stop-color="#01C16C"/>
<stop offset="1" stop-color="#019C57"/>
</linearGradient>
<linearGradient id="paint1_linear_1_199" x1="39.6562" y1="41.4628" x2="17.3214" y2="39.0829" gradientUnits="userSpaceOnUse">
<stop stop-color="#01C16C"/>
<stop offset="1" stop-color="#019C57"/>
</linearGradient>
</defs>
</svg>
